<svg width="16" height="24" viewBox="0 0 16 24" fill="none" xmlns="http://www.w3.org/2000/svg">
<path d="M13.8333 0.333374H2.16667C1.72464 0.333374 1.30072 0.508969 0.988156 0.821529C0.675595 1.13409 0.5 1.55801 0.5 2.00004V22C0.5 22.4421 0.675595 22.866 0.988156 23.1786C1.30072 23.4911 1.72464 23.6667 2.16667 23.6667H13.8333C14.2754 23.6667 14.6993 23.4911 15.0118 23.1786C15.3244 22.866 15.5 22.4421 15.5 22V2.00004C15.5 1.55801 15.3244 1.13409 15.0118 0.821529C14.6993 0.508969 14.2754 0.333374 13.8333 0.333374ZM2.16667 2.00004H13.8333V17H2.16667V2.00004ZM2.16667 22V18.6667H13.8333V22H2.16667Z" fill="#1D1D1D"/>
</svg>
