<svg width="26" height="29" viewBox="0 0 26 29" fill="none" xmlns="http://www.w3.org/2000/svg">
<path fill-rule="evenodd" clip-rule="evenodd" d="M11.7368 3.06169C9.15447 3.06169 6.67787 4.15085 4.85186 6.08958C3.02584 8.0283 2 10.6578 2 13.3995C2 16.1413 3.02584 18.7708 4.85186 20.7095C6.67787 22.6482 9.15447 23.7374 11.7368 23.7374C14.3192 23.7374 16.7958 22.6482 18.6218 20.7095C20.4478 18.7708 21.4737 16.1413 21.4737 13.3995C21.4737 10.6578 20.4478 8.0283 18.6218 6.08958C16.7958 4.15085 14.3192 3.06169 11.7368 3.06169ZM3.43764 4.58807C5.63873 2.25112 8.62404 0.938232 11.7368 0.938232C14.8496 0.938232 17.835 2.25112 20.036 4.58807C22.2371 6.92502 23.4737 10.0946 23.4737 13.3995C23.4737 16.3465 22.4905 19.1858 20.7171 21.4231L25.7077 26.7313L24.2923 28.2315L19.3036 22.9254C17.1948 24.8138 14.5167 25.8609 11.7368 25.8609C8.62404 25.8609 5.63873 24.548 3.43764 22.211C1.23656 19.8741 0 16.7045 0 13.3995C0 10.0946 1.23656 6.92502 3.43764 4.58807Z" fill="#1D1D1D"/>
</svg>
