<svg width="362" height="536" viewBox="0 0 362 536" fill="none" xmlns="http://www.w3.org/2000/svg">
<path d="M36.4997 118.1H111.8C114.1 92.6002 121.2 69.7002 131.4 52.0002C144.9 28.6002 164.1 14.2002 185.8 14.2002C207.5 14.2002 226.6 28.7002 240.2 52.0002C250.4 69.6002 257.5 92.6002 259.8 118.1H335C343.9 118.1 351.9 125.4 351.2 134.3L336.1 345C334.2 371.4 317.6 386.5 293.5 386.5H78.0997C51.2997 386.5 37.0997 367.8 35.4997 345L20.2997 134.4C19.6997 125.5 27.5997 118.1 36.4997 118.1ZM130.6 118.1H240.8C238.6 96.0002 232.5 76.4002 223.8 61.4002C213.8 43.9002 200.2 33.0002 185.8 33.0002C171.3 33.0002 157.8 43.9002 147.6 61.5002C138.9 76.4002 132.9 96.1002 130.6 118.1Z" fill="#EA501F"/>
<path d="M131.1 312.6C127.6 310.2 126.7 305.5 129.1 302C131.5 298.5 136.2 297.6 139.7 300C141.9 301.5 144.2 303 146.7 304.5C164.3 315.2 180.5 320.5 194 320.5C206.2 320.5 216.1 315.9 222.4 306.6C222.8 305.9 223.2 305.5 223.3 305.2C225.1 302.3 226.4 299.2 227.3 296.2C229.1 290 228.8 283.6 226.3 277.8C223.6 271.7 218.4 265.8 210.3 260.9C204.9 257.6 198.2 254.7 190.1 252.5C169.5 246.7 154.3 238.5 146.1 227.5C137.1 215.4 136.4 200.8 146 183.1C152.4 171.4 165.5 164.1 182.1 162.8C196.4 161.7 213.6 165.1 231.1 174C234.9 175.9 236.4 180.5 234.4 184.3C232.4 188.1 227.9 189.6 224.1 187.6C209.2 180 195 177.1 183.2 178C171.9 178.9 163.3 183.3 159.5 190.3C153.1 202 153.2 211.2 158.4 218.2C164.4 226.3 176.9 232.6 194.3 237.5C203.7 240.2 211.7 243.6 218.3 247.6C229.2 254.2 236.5 262.5 240.4 271.5C244.4 280.8 244.9 290.6 242.2 300.2C241 304.5 239.1 308.8 236.5 313C235.9 313.9 235.5 314.6 235.2 315.1C225.9 328.8 211.6 335.6 194.2 335.7C177.9 335.7 158.9 329.7 138.9 317.5C136.4 316.1 133.8 314.5 131.1 312.6Z" fill="white"/>
</svg>
